<svg width="28" height="24" viewBox="0 0 28 24" fill="none" xmlns="http://www.w3.org/2000/svg">
<path d="M11.84 11.805C10.7275 11.805 9.63994 11.4751 8.71491 10.857C7.78989 10.2389 7.06892 9.36042 6.64317 8.33259C6.21743 7.30476 6.10604 6.17376 6.32308 5.08261C6.54012 3.99147 7.07585 2.98919 7.86252 2.20252C8.64919 1.41585 9.65147 0.88012 10.7426 0.663078C11.8338 0.446036 12.9648 0.55743 13.9926 0.983173C15.0204 1.40892 15.8989 2.12989 16.517 3.05491C17.1351 3.97994 17.465 5.06747 17.465 6.17999C17.461 7.67062 16.8671 9.09906 15.8131 10.1531C14.7591 11.2071 13.3306 11.801 11.84 11.805ZM11.84 2.805C11.1725 2.805 10.52 3.00294 9.96495 3.37379C9.40993 3.74463 8.97735 4.27174 8.7219 4.88844C8.46646 5.50514 8.39962 6.18374 8.52985 6.83842C8.66007 7.49311 8.98151 8.09448 9.45351 8.56648C9.92551 9.03848 10.5269 9.35992 11.1816 9.49015C11.8363 9.62037 12.5149 9.55353 13.1316 9.29809C13.7483 9.04264 14.2754 8.61006 14.6462 8.05505C15.0171 7.50003 15.215 6.84751 15.215 6.17999C15.215 5.28489 14.8594 4.42645 14.2265 3.79351C13.5935 3.16057 12.7351 2.805 11.84 2.805ZM1.34 22.305C1.04163 22.305 0.75548 22.1865 0.544501 21.9755C0.333523 21.7645 0.214996 21.4784 0.214996 21.18C0.214996 14.055 8.36 14.055 11.84 14.055C12.92 14.055 13.88 14.055 14.75 14.16C15.0459 14.183 15.3208 14.3221 15.5146 14.5468C15.7085 14.7716 15.8057 15.0639 15.785 15.36C15.7582 15.6572 15.616 15.9321 15.3888 16.1256C15.1617 16.3191 14.8677 16.4158 14.57 16.395C13.76 16.395 12.86 16.305 11.84 16.305C4.07 16.305 2.465 18.255 2.465 21.18C2.46701 21.3283 2.43929 21.4755 2.38347 21.6129C2.32765 21.7503 2.24486 21.8751 2.13999 21.98C2.03512 22.0849 1.91029 22.1677 1.77289 22.2235C1.63549 22.2793 1.48829 22.307 1.34 22.305ZM15.005 23.445C14.7067 23.4447 14.4208 23.326 14.21 23.115C14.0915 23.0021 14.0003 22.8638 13.9431 22.7105C13.886 22.5572 13.8644 22.3929 13.88 22.23L14.12 19.35C14.1385 19.0852 14.2501 18.8355 14.435 18.645L22.715 10.365C23.2863 9.83576 24.0363 9.54173 24.815 9.54173C25.5937 9.54173 26.3437 9.83576 26.915 10.365C27.1967 10.6489 27.4187 10.9862 27.5681 11.3571C27.7175 11.7281 27.7913 12.1251 27.785 12.525C27.7908 12.8936 27.7236 13.2596 27.5871 13.6021C27.4507 13.9445 27.2477 14.2565 26.99 14.52L18.71 22.8C18.5264 22.9883 18.2818 23.1052 18.02 23.13L15.11 23.4L15.005 23.445ZM16.325 19.935L16.235 21.075L17.405 20.97L25.4 12.975C25.4931 12.8611 25.5412 12.717 25.535 12.57C25.5332 12.3614 25.4589 12.1599 25.325 12C25.1775 11.8904 24.9987 11.8312 24.815 11.8312C24.6313 11.8312 24.4525 11.8904 24.305 12L16.325 19.935Z" fill="white"/>
</svg>
