<svg width="20" height="20" viewBox="0 0 20 20" fill="none" xmlns="http://www.w3.org/2000/svg">
<path d="M6 8.99771C6 8.73249 6.10535 8.47814 6.29289 8.2906C6.48043 8.10307 6.73478 7.99771 7 7.99771H13C13.2652 7.99771 13.5196 8.10307 13.7071 8.2906C13.8946 8.47814 14 8.73249 14 8.99771C14 9.26293 13.8946 9.51728 13.7071 9.70481C13.5196 9.89235 13.2652 9.99771 13 9.99771H7C6.73478 9.99771 6.48043 9.89235 6.29289 9.70481C6.10535 9.51728 6 9.26293 6 8.99771ZM7 11.9977C6.73478 11.9977 6.48043 12.1031 6.29289 12.2906C6.10535 12.4781 6 12.7325 6 12.9977C6 13.2629 6.10535 13.5173 6.29289 13.7048C6.48043 13.8923 6.73478 13.9977 7 13.9977H11C11.2652 13.9977 11.5196 13.8923 11.7071 13.7048C11.8946 13.5173 12 13.2629 12 12.9977C12 12.7325 11.8946 12.4781 11.7071 12.2906C11.5196 12.1031 11.2652 11.9977 11 11.9977H7ZM1.12671e-06 9.99771C0.000502681 7.80531 0.721483 5.67383 2.05198 3.93131C3.38248 2.18878 5.24876 0.931794 7.3636 0.353791C9.47843 -0.224213 11.7246 -0.0911964 13.7564 0.732369C15.7883 1.55593 17.4932 3.02441 18.6087 4.91178C19.7242 6.79915 20.1886 9.00083 19.9304 11.178C19.6721 13.3551 18.7055 15.387 17.1794 16.961C15.6532 18.5351 13.6521 19.5639 11.484 19.8893C9.31588 20.2146 7.10091 19.8184 5.18 18.7617L1.292 19.9457C1.11858 19.9985 0.934065 20.0032 0.758187 19.9593C0.582308 19.9153 0.421685 19.8244 0.293496 19.6962C0.165308 19.568 0.074377 19.4074 0.0304305 19.2315C-0.013516 19.0556 -0.00882534 18.8711 0.044001 18.6977L1.228 14.8037C0.421529 13.3303 -0.000796137 11.6774 1.12671e-06 9.99771ZM9.99999 1.99771C8.57987 1.9976 7.18531 2.3755 5.95955 3.09263C4.7338 3.80975 3.72102 4.84023 3.02525 6.07824C2.32949 7.31624 1.97581 8.71714 2.00054 10.137C2.02528 11.557 2.42754 12.9447 3.166 14.1577C3.2393 14.2782 3.28629 14.4128 3.30387 14.5528C3.32145 14.6927 3.30922 14.8348 3.268 14.9697L2.502 17.4877L5.016 16.7217C5.15132 16.6805 5.29384 16.6684 5.43416 16.6864C5.57447 16.7043 5.70939 16.7518 5.83 16.8257C6.88435 17.4694 8.07346 17.8602 9.30413 17.9675C10.5348 18.0747 11.7736 17.8955 12.9234 17.4439C14.0732 16.9923 15.1028 16.2805 15.9316 15.3644C16.7603 14.4483 17.3656 13.3527 17.7 12.1635C18.0344 10.9743 18.0889 9.72379 17.8592 8.51001C17.6295 7.29622 17.1218 6.15213 16.3759 5.16739C15.63 4.18265 14.6662 3.38403 13.56 2.8341C12.4538 2.28418 11.2353 1.99791 9.99999 1.99771Z" fill="white"/>
</svg>
