<svg width="21" height="20" viewBox="0 0 21 20" fill="none" xmlns="http://www.w3.org/2000/svg">
<path d="M8.412 2.158C7.10231 2.42374 5.88006 3.01334 4.85685 3.87296C3.83364 4.73258 3.04207 5.83483 2.55443 7.07906C2.06679 8.32329 1.89861 9.66985 2.06525 10.9958C2.23189 12.3217 2.72804 13.5848 3.5084 14.6697C4.28875 15.7546 5.32845 16.6267 6.53255 17.2064C7.73664 17.7861 9.06678 18.0549 10.4015 17.9883C11.7362 17.9217 13.033 17.5218 14.1734 16.8251C15.3138 16.1284 16.2615 15.1572 16.93 14C14.5552 13.9815 12.284 13.0252 10.6112 11.3393C8.93852 9.65351 7.99993 7.37487 8 5C8 4.02 8.131 3.063 8.412 2.158ZM0 10C0 4.477 4.477 0 10 0H11.734L10.866 1.5C10.287 2.5 10 3.689 10 5C9.99985 6.03362 10.2286 7.05444 10.6698 7.98915C11.1111 8.92386 11.7538 9.74926 12.5519 10.4061C13.35 11.0629 14.2837 11.5348 15.2858 11.7879C16.288 12.041 17.3337 12.069 18.348 11.87L20.03 11.543L19.487 13.169C18.162 17.137 14.417 20 10 20C4.477 20 0 15.523 0 10Z" fill="white"/>
</svg>
