<svg width="19" height="19" viewBox="0 0 19 19" fill="none" xmlns="http://www.w3.org/2000/svg">
<path d="M1.5238 4.57142C1.5238 3.76314 1.84489 2.98797 2.41643 2.41643C2.98797 1.84489 3.76314 1.5238 4.57142 1.5238H13.7143C14.5226 1.5238 15.2977 1.84489 15.8693 2.41643C16.4408 2.98797 16.7619 3.76314 16.7619 4.57142V13.7143C16.7619 14.5226 16.4408 15.2977 15.8693 15.8693C15.2977 16.4408 14.5226 16.7619 13.7143 16.7619H4.57142C3.76314 16.7619 2.98797 16.4408 2.41643 15.8693C1.84489 15.2977 1.5238 14.5226 1.5238 13.7143V4.57142Z" stroke="white" stroke-width="2" stroke-linecap="round" stroke-linejoin="round"/>
<path d="M6.47619 8.38094C7.52816 8.38094 8.38095 7.52814 8.38095 6.47617C8.38095 5.4242 7.52816 4.57141 6.47619 4.57141C5.42422 4.57141 4.57143 5.4242 4.57143 6.47617C4.57143 7.52814 5.42422 8.38094 6.47619 8.38094Z" stroke="white" stroke-width="2" stroke-linecap="round" stroke-linejoin="round"/>
<path d="M11.0674 9.61598L4.57143 16.7619H13.8156C14.597 16.7619 15.3464 16.4515 15.899 15.8989C16.4515 15.3464 16.7619 14.597 16.7619 13.8156V13.7143C16.7619 13.3592 16.6286 13.2228 16.3886 12.96L13.3181 9.6114C13.175 9.4553 13.0009 9.33074 12.807 9.24567C12.6131 9.1606 12.4035 9.11688 12.1918 9.11731C11.98 9.11774 11.7706 9.16231 11.577 9.24817C11.3835 9.33403 11.2099 9.45929 11.0674 9.61598Z" stroke="white" stroke-width="2" stroke-linecap="round" stroke-linejoin="round"/>
</svg>
