<svg width="21" height="21" viewBox="0 0 21 21" fill="none" xmlns="http://www.w3.org/2000/svg">
<path d="M8.70711 2.12803C7.64624 2.12803 6.62883 2.54946 5.87868 3.2996C5.12853 4.04975 4.70711 5.06717 4.70711 6.12803C4.70711 7.1889 5.12853 8.20631 5.87868 8.95646C6.62883 9.70661 7.64624 10.128 8.70711 10.128C9.76797 10.128 10.7854 9.70661 11.5355 8.95646C12.2857 8.20631 12.7071 7.1889 12.7071 6.12803C12.7071 5.06717 12.2857 4.04975 11.5355 3.2996C10.7854 2.54946 9.76797 2.12803 8.70711 2.12803ZM2.70711 6.12803C2.70711 4.53673 3.33925 3.01061 4.46447 1.88539C5.58969 0.760173 7.11581 0.128032 8.70711 0.128032C10.2984 0.128032 11.8245 0.760173 12.9497 1.88539C14.075 3.01061 14.7071 4.53673 14.7071 6.12803C14.7071 7.71933 14.075 9.24545 12.9497 10.3707C11.8245 11.4959 10.2984 12.128 8.70711 12.128C7.11581 12.128 5.58969 11.4959 4.46447 10.3707C3.33925 9.24545 2.70711 7.71933 2.70711 6.12803ZM17.7071 11.128C17.9723 11.128 17.8594 11.128 18.3289 11.128C18.7071 11.128 19.033 11.128 18.7071 11.128H19.7071C19.9723 11.128 20.2267 11.2334 20.4142 11.4209C20.6018 11.6085 20.7071 11.8628 20.7071 12.128C20.7071 12.3932 20.6018 12.6476 20.4142 12.8351C20.2267 13.0227 19.9723 13.128 19.7071 13.128H18.7071C19.1184 13.128 18.5849 13.128 18.3289 13.128C18.0728 13.128 17.9723 13.128 17.7071 13.128C17.4419 13.128 17.7071 13.128 17.2071 13.128C16.7071 13.128 17.3686 13.128 17 13.128H16.7071H15.7071C15.4419 13.128 15.1875 13.0227 15 12.8351C14.8125 12.6476 14.7071 12.3932 14.7071 12.128C14.7071 11.8628 14.8125 11.6085 15 11.4209C15.1875 11.2334 15.4419 11.128 15.7071 11.128H16.7071C17.3686 11.128 16.9142 11.128 17.2071 11.128C17.5 11.128 17.4419 11.128 17.7071 11.128ZM5.20711 16.128C3.94711 16.128 2.70711 17.341 2.70711 19.128C2.70711 19.3932 2.60175 19.6476 2.41421 19.8351C2.22668 20.0227 1.97232 20.128 1.70711 20.128C1.44189 20.128 1.18754 20.0227 1 19.8351C0.812464 19.6476 0.707108 19.3932 0.707108 19.128C0.707108 16.496 2.60011 14.128 5.20711 14.128H12.2071C14.8141 14.128 16.7071 16.496 16.7071 19.128C16.7071 19.3932 16.6018 19.6476 16.4142 19.8351C16.2267 20.0227 15.9723 20.128 15.7071 20.128C15.4419 20.128 15.1875 20.0227 15 19.8351C14.8125 19.6476 14.7071 19.3932 14.7071 19.128C14.7071 17.341 13.4671 16.128 12.2071 16.128H5.20711Z" fill="white"/>
</svg>
